# xmcd CD database file
# Copyright (C) 1993-1998 Ti Kan
#
# Track frame offsets:
#	150
#	13567
#	32217
#	42477
#	51425
#	66595
#	79445
#	92705
#
# Disc length: 1430 seconds
#
# Revision: 1
# Processed by: cddbd v1.4b41PL1 Copyright (c) Steve Scherf et al.
# Submitted via: CDValet v3.31 - Copyright (c) 1997 Greg Leichner
#
DISCID=70059408
DTITLE=Fleetwood Mac - Fleetwood Mac
DYEAR=1900
DGENRE=
TTITLE0=My Heart Beat Like A Hammer
TTITLE1=Merry Go Round
TTITLE2=Long Grey Mare
TTITLE3=Hellhound On My Trail
TTITLE4=No Place to Go
TTITLE5=My Baby's Good To Me
TTITLE6=If I loved Another Woman
TTITLE7=Cold Black Night
EXTD=Sony Music Special Editions BUK 50031
EXTT0=
EXTT1=
EXTT2=
EXTT3=
EXTT4=
EXTT5=
EXTT6=
EXTT7=
PLAYORDER=
